<svg id="Group_4042" data-name="Group 4042" xmlns="http://www.w3.org/2000/svg" width="20" height="20" viewBox="0 0 20 20">
  <defs>
    <style>
      .cls-1 {
        fill: #32a214;
      }
    </style>
  </defs>
  <g id="Group_4041" data-name="Group 4041">
    <path id="Path_26729" data-name="Path 26729" class="cls-1" d="M18.242,0H9.961A1.76,1.76,0,0,0,8.2,1.758v4l-.515-.515a1.746,1.746,0,0,0-1.243-.515H2.93A2.933,2.933,0,0,0,0,7.656v3.516a1.758,1.758,0,0,0,2.344,1.657v5.413a1.757,1.757,0,0,0,2.93,1.309A1.757,1.757,0,0,0,8.2,18.242V10.486A1.765,1.765,0,0,0,9.575,10.4l1.973-.986h6.694A1.76,1.76,0,0,0,20,7.656v-5.9A1.76,1.76,0,0,0,18.242,0ZM11.395,8.18,9.052,9.352a.586.586,0,0,1-.677-.11L8.032,8.9a.586.586,0,0,0-1,.413v8.931a.586.586,0,0,1-1.172,0v-5.9a.586.586,0,0,0-1.172,0v5.9a.586.586,0,0,1-1.172,0V7.656a.586.586,0,0,0-1.172,0v3.516a.586.586,0,0,1-1.172,0c0-.442,0-3.155,0-3.516A1.76,1.76,0,0,1,2.93,5.9H6.445a.582.582,0,0,1,.414.172L8.606,7.817a.586.586,0,0,0,.676.11l1.589-.794a.586.586,0,0,1,.524,1.048Zm7.433-.524a.587.587,0,0,1-.586.586H12.79l.011-.03a1.751,1.751,0,0,0,.077-.773l3.2-1.6a.586.586,0,1,0-.524-1.048l-3.2,1.6a1.756,1.756,0,0,0-2.008-.307l-.972.486V1.758a.587.587,0,0,1,.586-.586h8.281a.587.587,0,0,1,.586.586Z"/>
  </g>
</svg>
