<svg xmlns="http://www.w3.org/2000/svg" width="20" height="20" viewBox="0 0 20 20">
  <defs>
    <style>
      .cls-1 {
        fill: #32a214;
      }
    </style>
  </defs>
  <path id="Path_26730" data-name="Path 26730" class="cls-1" d="M10,0A10,10,0,1,0,20,10,10,10,0,0,0,10,0Zm.605,14.455v1.158a.31.31,0,0,1-.322.312H9.512a.314.314,0,0,1-.327-.312V14.556a6.624,6.624,0,0,1-1.969-.39.618.618,0,0,1-.379-.731l.126-.49a.619.619,0,0,1,.822-.423,4.965,4.965,0,0,0,1.778.345c.829,0,1.4-.32,1.4-.9,0-.553-.466-.9-1.543-1.267C7.86,10.175,6.794,9.447,6.794,8.035A2.693,2.693,0,0,1,9.25,5.444V4.388a.348.348,0,0,1,.336-.342h.772a.329.329,0,0,1,.314.342v.953a5.746,5.746,0,0,1,1.576.263.62.62,0,0,1,.411.741l-.111.439a.617.617,0,0,1-.8.431,4.457,4.457,0,0,0-1.471-.243c-.946,0-1.252.408-1.252.816,0,.48.51.786,1.747,1.252,1.732.611,2.428,1.412,2.428,2.722A2.789,2.789,0,0,1,10.605,14.455Z"/>
</svg>
