<svg xmlns="http://www.w3.org/2000/svg" width="20" height="20" viewBox="0 0 20 20">
  <defs>
    <style>
      .cls-1 {
        fill: #32a214;
      }
    </style>
  </defs>
  <path id="Path_26731" data-name="Path 26731" class="cls-1" d="M10,0A10,10,0,1,0,20,10,10.011,10.011,0,0,0,10,0Zm0,2.917A4.792,4.792,0,1,1,5.208,7.708,4.8,4.8,0,0,1,10,2.917Zm0,15.417a8.317,8.317,0,0,1-6.659-3.344A15.691,15.691,0,0,1,10,13.333a15.692,15.692,0,0,1,6.659,1.656A8.317,8.317,0,0,1,10,18.333Z"/>
</svg>
