<svg xmlns="http://www.w3.org/2000/svg" xmlns:xlink="http://www.w3.org/1999/xlink" width="321" height="116" viewBox="0 0 321 116">
  <defs>
    <style>
      .cls-1, .cls-2, .cls-4 {
        fill: #fff;
      }

      .cls-1 {
        font-size: 22px;
        font-family: Mont-Regular, Mont;
        letter-spacing: 0.01em;
      }

      .cls-2 {
        font-size: 18px;
        font-family: CircularStd-Book, Circular Std Book;
      }

      .cls-3 {
        fill: #32a214;
      }

      .cls-5 {
        filter: url(#Ellipse_13);
      }
    </style>
    <filter id="Ellipse_13" x="0" y="2" width="114" height="114" filterUnits="userSpaceOnUse">
      <feOffset dy="5" input="SourceAlpha"/>
      <feGaussianBlur stdDeviation="5" result="blur"/>
      <feFlood flood-color="#34ab70" flood-opacity="0.302"/>
      <feComposite operator="in" in2="blur"/>
      <feComposite in="SourceGraphic"/>
    </filter>
  </defs>
  <g id="Group_68" data-name="Group 68" transform="translate(-1155 -4477)">
    <g id="Group_67" data-name="Group 67">
      <text id="Start_Learning" data-name="Start Learning" class="cls-1" transform="translate(1274 4499)"><tspan x="0" y="0">Start Learning</tspan></text>
      <text id="Vestibulum_ac_pretium_magna_ac_faucibus_nibh._Fusce_vitae." data-name="Vestibulum ac pretium
magna, ac faucibus nibh.
Fusce vitae." class="cls-2" transform="translate(1274 4534)"><tspan x="0" y="0">Vestibulum ac pretium</tspan><tspan x="0" y="24">magna, ac faucibus nibh.</tspan><tspan x="0" y="48">Fusce vitae.</tspan></text>
    </g>
    <g id="Group_66" data-name="Group 66" transform="translate(-20 1)">
      <g class="cls-5" transform="matrix(1, 0, 0, 1, 1175, 4476)">
        <circle id="Ellipse_13-2" data-name="Ellipse 13" class="cls-3" cx="42" cy="42" r="42" transform="translate(15 12)"/>
      </g>
      <g id="webinar" transform="translate(1213 4511)">
        <path id="Path_101" data-name="Path 101" class="cls-4" d="M162.113,65.938h3.34v8.535a1.113,1.113,0,0,0,1.113,1.113H181.41a1.113,1.113,0,0,0,1.113-1.113V61.113A1.113,1.113,0,0,0,181.41,60H166.566a1.113,1.113,0,0,0-.713.258L161.4,63.969a1.113,1.113,0,0,0,.713,1.969Zm4.856-3.711H180.3V73.359H167.679V64.824a1.113,1.113,0,0,0-1.113-1.113h-1.378Z" transform="translate(-149.05 -55.547)"/>
        <path id="Path_102" data-name="Path 102" class="cls-4" d="M282.113,122.227h5.938a1.113,1.113,0,0,0,0-2.227h-5.937a1.113,1.113,0,0,0,0,2.227Z" transform="translate(-260.145 -111.094)"/>
        <path id="Path_103" data-name="Path 103" class="cls-4" d="M282.113,182.227h5.938a1.113,1.113,0,0,0,0-2.227h-5.937a1.113,1.113,0,0,0,0,2.227Z" transform="translate(-260.145 -166.641)"/>
        <path id="Path_104" data-name="Path 104" class="cls-4" d="M34.66,0H3.34A3.344,3.344,0,0,0,0,3.34v23.9a3.344,3.344,0,0,0,3.34,3.34H13.367a9.5,9.5,0,0,1-2.007,4.8l-.316.4H8.609a1.113,1.113,0,1,0,0,2.227H29.391a1.113,1.113,0,0,0,0-2.227H26.957l-.316-.4a9.505,9.505,0,0,1-2.007-4.8H34.66A3.344,3.344,0,0,0,38,27.238V3.34A3.344,3.344,0,0,0,34.66,0ZM3.34,2.227H34.66A1.115,1.115,0,0,1,35.773,3.34V23.008H15.66v-.371a5.565,5.565,0,0,0-2.55-4.675,4.082,4.082,0,1,0-6.033,0,5.565,5.565,0,0,0-2.55,4.675v.371h-2.3V3.34A1.115,1.115,0,0,1,3.34,2.227Zm4.9,12.988a1.855,1.855,0,1,1,1.855,1.855A1.858,1.858,0,0,1,8.238,15.215ZM10.094,19.3a3.344,3.344,0,0,1,3.34,3.34v.371H6.754v-.371A3.344,3.344,0,0,1,10.094,19.3ZM24.189,35.773H13.811a11.759,11.759,0,0,0,1.8-5.2h6.787A11.759,11.759,0,0,0,24.189,35.773ZM34.66,28.352H3.34a1.115,1.115,0,0,1-1.113-1.113v-2H35.773v2A1.115,1.115,0,0,1,34.66,28.352Z"/>
      </g>
    </g>
  </g>
</svg>
